<svg xmlns="http://www.w3.org/2000/svg" width="295.62024mm" height="201.44518mm" viewBox="0 0 295.62024 201.44518"><defs><radialGradient id="b" cx="0" cy="0" r="1" fx="0" fy="0" gradientTransform="matrix(87.77055 .23702 -.23702 87.77055 377.424 373.65)" gradientUnits="userSpaceOnUse" spreadMethod="pad"><stop offset="0" style="stop-opacity:1;stop-color:#fff"/><stop offset="0.277228" style="stop-opacity:1;stop-color:#fff"/><stop offset="0.3175492" style="stop-opacity:1;stop-color:#fff"/><stop offset="0.589109" style="stop-opacity:1;stop-color:#a5d6f4"/><stop offset="1" style="stop-opacity:1;stop-color:#00b4e6"/></radialGradient><clipPath id="a" clipPathUnits="userSpaceOnUse"><path d="M0 0h595.275v841.89H0Z"/></clipPath></defs><g clip-path="url(#a)" transform="matrix(1.23864 0 0 -1.23864 -249.661 470.448)"><path d="M0 0c-.642 6.266-7.774 11.396-15.935 11.465-8.158.065-14.251-4.96-13.612-11.222.639-6.264 7.773-11.402 15.931-11.469C-5.457-11.287.641-6.267 0 0m-26.991 1.565c-.555 5.055 4.741 9.108 11.83 9.054 7.086-.054 13.287-4.194 13.841-9.246.556-5.054-4.738-9.102-11.828-9.05-7.084.054-13.286 4.194-13.843 9.242" style="fill:#f7bb82;fill-opacity:1;fill-rule:nonzero;stroke:none" transform="translate(244.374 329.007)"/><path d="M0 0c-4.669-4.878-4.746-12.385-.17-16.767 4.575-4.38 12.073-3.974 16.743.907 4.673 4.877 4.754 12.385.173 16.765C12.173 5.283 4.673 4.882 0 0m14.89-13.778c-4.018-4.204-10.47-4.55-14.405-.78C-3.453-10.792-3.386-4.331.633-.133 4.65 4.066 11.104 4.415 15.04.646c3.937-3.774 3.872-10.229-.15-14.424" style="fill:#f4a052;fill-opacity:1;fill-rule:nonzero;stroke:none" transform="translate(217.166 331.437)"/><path d="M0 0c-8.672-6.863-10.878-16.814-4.932-22.217 5.95-5.406 17.801-4.219 26.472 2.646 8.672 6.862 10.878 16.813 4.932 22.217C20.522 8.051 8.67 6.867 0 0m7.762 2.693c8.355 3.133 16.623-.039 18.46-7.076 1.837-7.043-3.45-15.291-11.806-18.42-8.358-3.134-16.624.033-18.46 7.074C-5.883-8.688-.593-.441 7.762 2.693" style="fill:#ed7100;fill-opacity:1;fill-rule:nonzero;stroke:none" transform="translate(209.832 344.459)"/><path d="M0 0h-2.015v8.002h-9.607V0h-2.01v15.395h2.01v-5.067h9.607v5.067H0Z" style="fill:#231916;fill-opacity:1;fill-rule:nonzero;stroke:none" transform="translate(263.949 322.996)"/><path d="M0 0h6.561c1.85 0 3.168-.56 3.954-1.682 1.019-1.427.735-3.417.735-5.06v-1.686c0-.857-.243-1.67-.688-2.264-.432-.581-1.058-.96-1.836-.962-.685-.002-1.371 0-2.055 0H3.31c-1.539 0-2.616.201-3.235.615-.856.563-1.281 1.658-1.281 3.285.019 1.529.496 2.575 1.368 3.127.634.402 1.688.599 3.163.599 0 0 5.719-.036 5.719-.003 0 .578-.15 1.26-.737 1.593-.567.325-1.277.379-1.914.379H-.058Zm6.974-6.025H3.469c-.757 0-1.317-.086-1.684-.254-.61-.28-.914-.819-.914-1.612.008-.75.3-1.236.87-1.474.328-.145.895-.217 1.696-.217H6.35c1.005 0 1.727.16 2.161.486.397.299.596.785.596 1.457-.046 1.084-.762 1.619-2.133 1.614" style="fill:#231916;fill-opacity:1;fill-rule:nonzero;stroke:none" transform="translate(333.905 334.65)"/><path d="M0 0c1.478 0 2.63-.445 3.451-1.33.826-.893 1.236-1.787 1.236-3.482v-6.768H2.673v6.776c0 .974-.263 1.347-.788 1.89-.521.552-1.217.826-2.082.826h-1.844c-.867 0-1.565-.274-2.084-.826-.526-.543-.791-.916-.791-1.89v-6.776h-2.007v6.768c0 1.695.405 2.589 1.235 3.482C-4.867-.445-3.717 0-2.24 0Z" style="fill:#231916;fill-opacity:1;fill-rule:nonzero;stroke:none" transform="translate(288.6 334.576)"/><path d="M0 0v-6.578c0-.978-.26-1.344-.787-1.889-.525-.549-1.217-.823-2.084-.823h-1.255c-.86 0-1.558.274-2.081.823-.524.545-.786.911-.786 1.889V0h-2.112v-6.578c0-.978-.26-1.344-.786-1.889-.525-.549-1.22-.823-2.086-.823h-1.252c-.863 0-1.56.274-2.082.823-.525.545-.787.911-.787 1.889V0h-2.014v-6.768c0-1.695.411-2.588 1.235-3.482.824-.887 1.975-1.33 3.45-1.33h1.651c1.475 0 2.629.443 3.451 1.33.096.105.188.217.277.322.086-.105.177-.217.278-.322.823-.887 1.972-1.33 3.448-1.33h1.65c1.477 0 2.627.443 3.451 1.33.826.894 1.237 1.787 1.237 3.482V0Z" style="fill:#231916;fill-opacity:1;fill-rule:nonzero;stroke:none" transform="translate(313.97 334.576)"/><path d="M0 0c-.825.885-1.976 1.33-3.452 1.33h-2.24c-1.076 0-1.976-.236-2.704-.706v4.619h-2.026V-10.25h2.055v6.776c0 .974.263 1.347.787 1.89.524.552 1.217.826 2.08.826h1.85c.865 0 1.562-.274 2.088-.826.52-.543.779-.916.779-1.89v-6.776h2.021v6.768C1.238-1.787.823-.893 0 0" style="fill:#231916;fill-opacity:1;fill-rule:nonzero;stroke:none" transform="translate(329.033 333.246)"/><path d="M0 0h6.563c1.853 0 3.173-.56 3.955-1.682 1.018-1.427.737-3.417.732-5.06v-1.686c0-.857-.236-1.67-.687-2.264-.43-.581-1.054-.96-1.837-.962-.684-.002-1.37 0-2.051 0H3.313c-1.541 0-2.616.201-3.236.615-.854.563-1.28 1.658-1.28 3.285.018 1.529.493 2.575 1.368 3.127.636.402 1.688.599 3.165.599 0 0 5.719-.036 5.719-.003 0 .578-.151 1.26-.739 1.593-.573.325-1.274.379-1.914.379H-.057Zm6.979-6.025h-3.51c-.755 0-1.316-.086-1.682-.254-.607-.28-.913-.819-.913-1.612.011-.75.299-1.236.867-1.474.33-.145.898-.217 1.699-.217h2.914c1.002 0 1.726.16 2.162.486.398.299.597.785.597 1.457-.049 1.084-.763 1.619-2.134 1.614" style="fill:#231916;fill-opacity:1;fill-rule:nonzero;stroke:none" transform="translate(267.894 334.65)"/><path d="M0 0h1.861l3.19-5.553L8.241 0h1.861L5.861-7.34v-5.656H4.242v5.656z" style="fill:#002f75;fill-opacity:1;fill-rule:nonzero;stroke:none" transform="translate(290.799 230.445)"/><path d="M0 0h6.98v-1.479H1.615v-3.64h5.211v-1.483H1.615v-4.912H6.98v-1.482H0Z" style="fill:#002f75;fill-opacity:1;fill-rule:nonzero;stroke:none" transform="translate(303.918 230.445)"/><path d="M0 0c0 2.858-2.134 5.252-5.189 5.252-3.044 0-5.186-2.394-5.186-5.252 0-2.964 2.384-5.261 5.186-5.261C-2.377-5.261 0-2.964 0 0m1.623 0c0-3.858-3.053-6.774-6.812-6.774-3.755 0-6.807 2.916-6.807 6.774 0 3.722 3.089 6.769 6.807 6.769 3.727 0 6.812-3.047 6.812-6.769" style="fill:#002f75;fill-opacity:1;fill-rule:nonzero;stroke:none" transform="translate(325.873 223.95)"/><path d="M0 0c-.482.809-1.1 1.222-2.077 1.222-1.038 0-2.181-.708-2.181-1.843 0-1.016 1-1.547 1.815-1.861l.927-.362C.326-3.57 1.711-4.585 1.711-6.758c0-2.361-1.832-4.047-4.154-4.047-2.106 0-3.743 1.549-4.02 3.633l1.642.348c-.021-1.432 1.116-2.467 2.513-2.467 1.392 0 2.392 1.172 2.392 2.533 0 1.396-1.113 2-2.24 2.463l-.895.383c-1.48.635-2.822 1.482-2.822 3.291 0 2.1 1.857 3.359 3.822 3.359 1.449 0 2.635-.707 3.346-1.96z" style="fill:#002f75;fill-opacity:1;fill-rule:nonzero;stroke:none" transform="translate(336.732 227.98)"/><path d="M0 0v-7.67c0-2.121.636-4.086 3.134-4.086 2.5 0 3.141 1.965 3.141 4.086V0h1.617v-8.223c0-2.861-1.776-5.047-4.758-5.047-2.983 0-4.76 2.186-4.76 5.047V0Z" style="fill:#002f75;fill-opacity:1;fill-rule:nonzero;stroke:none" transform="translate(343.509 230.445)"/><path d="M0 0c-4.95 0-8.54 3.558-8.54 8.465 0 5.65 4.292 8.613 8.54 8.613 4.596 0 8.336-3.843 8.336-8.582C8.336 3.735 4.668 0 0 0m9.865 20.994a1.694 1.694 0 0 1-1.688-1.683c0-.012 0-.016.002-.028v-2.916C5.572 19.778 1.648 20.166 0 20.166c-7.45 0-11.902-5.888-11.902-11.584C-11.902 2.037-6.671-3.084 0-3.084c1.613 0 5.507.39 8.179 3.789v-2.948l-.002-.018a1.682 1.682 0 1 1 3.367-.004v21.576c0 .924-.755 1.683-1.679 1.683m32.586-10.695c.885 4.652 4.759 6.779 8.046 6.779 3.255 0 7.119-2.127 8.075-6.779zm8 9.867c-6.341-.119-11.5-5.356-11.5-11.67 0-6.385 5.179-11.58 11.546-11.58 4.485 0 8.605 2.666 10.489 6.779.011.01.029.067.038.078.421 1.235-.251 1.966-1.022 2.241a1.625 1.625 0 0 1-.512.084c-.729 0-1.363-.487-1.584-1.208C57.098 2.691 54.658.088 50.455 0c-4.004 0-7.675 3.336-8.036 7.215h19.315c.168 0 .295.121.31.281.145 2.609-.428 4.973-1.7 6.995a11.522 11.522 0 0 1-9.893 5.675m25.971-.555h-4.877v7.319a1.68 1.68 0 0 1-1.68 1.675 1.688 1.688 0 0 1-1.683-1.675v-7.319h-4.235a1.543 1.543 0 1 1 0-3.084H68.182V-2.265a.26.26 0 0 1 .07-.173c.18-.77.84-1.306 1.613-1.306.768 0 1.422.527 1.615 1.277a.338.338 0 0 1 .065.202v18.792h4.877a1.541 1.541 0 0 1 0 3.084m-50.705.555c-3.006 0-5.182-1.347-6.405-2.803v1.948c0 .924-.749 1.683-1.682 1.683a1.685 1.685 0 0 1-1.679-1.683V-2.265a1.68 1.68 0 1 1 3.361 0v11.87c-.029 2.452.65 4.47 1.926 5.704 1.685 1.64 3.854 1.769 4.479 1.769.63 0 2.807-.129 4.486-1.772 1.266-1.218 1.964-3.243 1.964-5.701v-11.87a1.68 1.68 0 1 1 3.362 0v11.87c0 3.351-.957 6.059-2.768 7.829-1.894 1.889-4.062 2.732-7.044 2.732M-34.285 0c-4.68 0-8.337 3.735-8.337 8.496 0 4.739 3.737 8.582 8.337 8.582 4.245 0 8.537-2.963 8.537-8.613 0-4.824-3.674-8.465-8.537-8.465m0 20.166c-1.567 0-5.385-.388-8.18-3.843v2.988c0 .924-.755 1.683-1.679 1.683a1.69 1.69 0 0 1-1.688-1.683V-9.842c0-.935.755-1.689 1.688-1.689.924 0 1.679.754 1.679 1.689V.708c2.825-3.505 6.934-3.792 8.18-3.792 6.681 0 11.898 5.121 11.898 11.666 0 5.696-4.446 11.584-11.898 11.584m17.083 8.439a1.686 1.686 0 0 1-1.683-1.693V-2.265a1.681 1.681 0 1 1 3.365 0V26.93c0 .919-.756 1.675-1.682 1.675" style="fill:#002f75;fill-opacity:1;fill-rule:nonzero;stroke:none" transform="translate(336.63 248.98)"/><path d="M0 0a1.685 1.685 0 0 1-1.684-1.73v-11.352c0-3.781-1.02-5.121-2.158-6.26-1.11-1.114-2.541-1.654-4.368-1.654-2.024 0-3.641.66-4.773 1.945-.993 1.233-1.473 3.028-1.473 5.488v11.876c0 .935-.755 1.687-1.686 1.687a1.682 1.682 0 0 1-1.676-1.687V-13.602c0-3.133.659-5.536 1.96-7.132 1-1.246 3.326-3.346 7.648-3.346 3.825 0 5.796 1.93 6.684 3.207v-2.385a1.603 1.603 0 1 1 3.208 0v21.571C1.682-.752.925 0 0 0m17.274-20.996c-4.943 0-8.533 3.56-8.533 8.469 0 5.654 4.296 8.611 8.533 8.611 4.6 0 8.341-3.855 8.341-8.582 0-4.77-3.661-8.498-8.341-8.498M27.142 0a1.686 1.686 0 0 1-1.686-1.687v-2.942c-2.603 3.412-6.538 3.797-8.182 3.797-7.444 0-11.896-5.89-11.896-11.584 0-6.541 5.226-11.664 11.896-11.664 1.619 0 5.509.389 8.182 3.783v-2.961c0-.936.757-1.691 1.686-1.691.926 0 1.681.755 1.681 1.691v21.571c0 .935-.755 1.687-1.681 1.687m-60.957-20.996c-4.866 0-8.536 3.641-8.536 8.469 0 5.654 4.291 8.611 8.536 8.611 4.604 0 8.346-3.855 8.346-8.582 0-4.77-3.665-8.498-8.346-8.498M-23.949 0a1.682 1.682 0 0 1-1.682-1.687v-2.954c-2.623 3.424-6.549 3.809-8.184 3.809-7.444 0-11.9-5.89-11.9-11.584 0-6.541 5.224-11.664 11.9-11.664 1.629 0 5.54.389 8.184 3.769V-30.84a1.679 1.679 0 1 1 3.357 0v29.153c0 .935-.748 1.687-1.675 1.687M-60.56-20.996c-4.949 0-8.533 3.56-8.533 8.469 0 5.654 4.292 8.611 8.533 8.611 4.594 0 8.334-3.855 8.334-8.582 0-4.77-3.657-8.498-8.334-8.498m11.545 19.309c0 .935-.759 1.687-1.682 1.687a1.687 1.687 0 0 1-1.685-1.687v-2.942c-2.609 3.412-6.543 3.797-8.178 3.797-7.45 0-11.896-5.89-11.896-11.584 0-6.541 5.224-11.664 11.896-11.664 1.611 0 5.505.389 8.178 3.789v-2.967c0-.936.76-1.691 1.685-1.691.923 0 1.682.755 1.682 1.691v21.541z" style="fill:#002f75;fill-opacity:1;fill-rule:nonzero;stroke:none" transform="translate(316.392 312.494)"/><path d="M0 0c.552-1.775.845-3.604.848-5.432.017-3.733-1.2-7.48-3.75-10.525-1.26-1.495-2.8-2.995-4.652-4.174-1.415-.898-3.039-1.627-4.835-1.924 1.16-4.552 1.703-9.203 1.838-13.832l.002-.044-.002-.058c0-.039 0-.105.002-.193.014-5.494-.84-11.697-3.603-17.672-2.756-5.972-7.469-11.669-14.879-15.962-4.02-2.286-8.871-4.487-14.753-5.729a8.95 8.95 0 0 1-.415-.521c-.439-.577-1.001-1.387-1.619-2.276-1.249-1.789-2.676-3.872-4.312-5.491-1.123-1.022-2.291-2.161-4.515-2.269h-.038a4.316 4.316 0 0 0-2.262.663c-1.046.751-1.116 1.273-1.321 1.654a6.728 6.728 0 0 0-.315 1.074c-.148.696-.235 1.44-.291 2.246a20.374 20.374 0 0 0-.056 1.531c.012 1.472.088 2.906.553 4.334.256.799.615 1.466.91 1.92a9.4 9.4 0 0 0-.787 1.434c-.332.773-.424 1.404-.514 2.09a18.99 18.99 0 0 0-.109 2.095 29.268 29.268 0 0 0 .186 3.323c.138 1.068.246 1.9.605 2.856.127.288.244.609.665 1.099.124.142.239.244.335.327.707.616 1.67.874 2.349.852 1.311-.035 2.066-.468 2.871-.89.782-.451 1.555-1.006 2.392-1.656 1.058-.825 2.21-1.803 3.443-2.886 1.986 2.748 3.367 5.987 3.325 8.832-.014 1.752-.456 3.378-1.591 5.022-1.615 2.323-4.168 3.858-6.566 3.823a6.222 6.222 0 0 1-1.888-.302l-.003-.003c-.032-.015-.088-.037-.158-.066-.139-.063-.334-.145-.56-.249-.458-.209-1.051-.488-1.716-.789-1.332-.605-2.903-1.306-4.371-1.814-1.006-.328-1.864-.618-3.047-.646-.347 0-.74.025-1.233.173a3.357 3.357 0 0 0-1.62 1.1c-.074.091-.147.18-.219.29a16.042 16.042 0 0 0-8.519-1.499c-1.394.185-3.436.378-5.39 2.019-.637.565-1.238 1.387-1.522 2.382a4.354 4.354 0 0 0-.177 1.226c.064 1.808.798 2.695 1.089 3.346.355.663.435.968.429 1.132-.004.093-.011.2-.106.443-.235.539-.465.823-.968 1.304-.493.462-1.29 1.039-2.221 1.908-1.924 1.824-3.532 3.959-4.789 6.248-2.15 3.942-3.181 8.424-3.195 12.853-.004.855.033 1.705.107 2.558.559 6.213 3.545 11.704 7.459 16.067 3.932 4.364 8.81 7.662 13.586 9.532 4.661 1.808 9.562 2.631 14.439 2.699a32.429 32.429 0 0 0 9.538-1.312c6.439-1.857 11.421-5.203 16.248-9.563 2.258-2.045 4.07-4.207 5.851-6.217 1.003 1.135 2.383 2.881 3.854 4.68 1.904 2.316 3.984 4.757 6.193 6.539 1.495 1.155 3.048 2.211 5.27 2.274 1.446.045 3.049-.712 3.987-1.863A23.23 23.23 0 0 0-.002.006" style="fill:#002f75;fill-opacity:1;fill-rule:nonzero;stroke:none" transform="translate(439.377 366.252)"/></g><path d="M383.98 376.964c-4.604-.067-9.162-.833-13.464-2.51-8.644-3.362-18.275-12.323-19.248-23.203-.407-4.708.492-9.649 2.755-13.792 1.119-2.04 2.553-3.942 4.245-5.545 1.529-1.439 3.036-2.195 3.863-4.193 1.269-3.051-1.645-4.657-1.133-6.435.488-1.698 2.958-2.225 4.458-2.372.081-.004.161-.004.243-.012.263-.019.533-.032.823-.023 1.651.023 3.721.347 6.126 1.361.218.108.432.217.641.336.177.098.777.367 1.622.783 3.304 1.863 7.103 5.039 11.221 10.323a.975.975 0 0 0 1.376.17c.432-.328.459-.917.176-1.37-3.4-5.434-8.985-9.276-11.801-10.828 1.765-2.131 5.978.445 7.792 1.325 2.542 1.226 8.891 4.767 9.316 5.007.417.233.465.012.266-.364-.491-.93-1.64-2.124-1.617-3.715 2.309-.661 4.321-2.13 5.774-4.212 4.552-6.523.986-14.458-3.748-19.552-4.758 4.217-8.465 7.505-9.542 6.469-.013-.01-.03-.02-.042-.03-.633-.713-1.098-6.742-.355-8.43.208-.473.439-.843.656-1.158.38-.576.685-.992.611-1.602-.122-1.021-.715-.92-1.3-2.65-.389-1.148-.462-3.116-.353-4.754.093-1.418.325-2.592.612-2.772 3.014-1.89 8.313 8.845 10.22 10.044a.72.72 0 0 0 .196.101c5.813 1.142 10.574 3.274 14.574 5.547 13.889 8.067 17.114 20.938 17.044 31.373-.169 5.757-.991 11.478-2.854 16.934 4.394-1.324 8.5 1.728 11.165 4.907 3.12 3.733 3.806 8.666 2.362 13.283-.814 2.61-2.223 5.071-3.951 7.075-3.76 4.377-12.018-8.845-15.875-12.57-1.827-1.767-4.391-4.24-4.717-3.584-.275.531 1.768 4.034 1.467 4.363-2.152 2.366-3.383 3.965-5.78 6.123-4.666 4.209-9.194 7.226-15.138 8.948a29.605 29.605 0 0 1-8.315 1.206c-.124 0-.245 0-.371-.002" style="fill:url(#b);stroke:none" transform="matrix(1.23864 0 0 -1.23864 -249.661 470.448)"/><path d="M0 0c-2.016-.117-3.724 1.111-3.82 2.718-.084 1.633 1.478 3.039 3.491 3.145 2.019.114 3.716-1.114 3.809-2.729C3.57 1.52 2.009.111 0 0" style="fill:#002f75;fill-opacity:1;fill-rule:nonzero;stroke:none" transform="matrix(1.23864 0 0 -1.23864 235.407 54.755)"/></svg>